<?xml version="1.0" standalone="no"?>
<!DOCTYPE svg PUBLIC "-//W3C//DTD SVG 20010904//EN"
 "http://www.w3.org/TR/2001/REC-SVG-20010904/DTD/svg10.dtd">
<svg version="1.0" xmlns="http://www.w3.org/2000/svg"
 width="348.000000pt" height="278.000000pt" viewBox="0 0 348.000000 278.000000"
 preserveAspectRatio="xMidYMid meet">

<g transform="translate(0.000000,278.000000) scale(0.100000,-0.100000)"
fill="#000000" stroke="none">
<path d="M2076 2697 c-3 -12 -6 -34 -6 -48 0 -14 -14 -46 -31 -70 -16 -24 -42
-61 -56 -81 -14 -21 -41 -75 -59 -120 -18 -46 -38 -82 -43 -81 -12 3 -35 -38
-45 -79 -4 -18 -11 -25 -20 -22 -20 8 -36 -27 -36 -76 0 -34 -4 -43 -20 -47
-24 -6 -32 -35 -34 -112 -1 -47 2 -56 18 -59 17 -4 18 1 13 48 -6 50 -6 52 12
36 26 -24 34 -20 28 14 -5 23 -3 30 9 30 13 0 15 9 12 40 -4 42 6 54 17 20 8
-27 35 -27 28 0 -3 11 0 26 6 34 7 9 9 29 5 55 -8 50 1 53 21 5 19 -46 36 -37
24 13 -5 21 -9 51 -9 66 0 38 22 31 35 -11 5 -18 12 -32 15 -32 7 0 44 63 45
77 0 7 6 18 13 25 9 9 12 9 12 -5 0 -45 82 4 101 61 7 20 25 58 41 83 29 48
35 69 18 69 -10 0 -64 -64 -61 -74 3 -11 -47 -102 -63 -115 -25 -21 -20 3 10
55 21 35 23 44 11 44 -9 0 -19 -4 -22 -10 -3 -5 -11 -10 -17 -10 -7 0 1 14 17
30 23 24 26 33 16 43 -18 18 -67 -44 -89 -115 -15 -48 -20 -55 -35 -47 -15 9
-15 15 7 74 13 36 39 84 58 107 59 71 78 110 78 155 0 47 -14 65 -24 30z"/>
<path d="M2243 2480 c-21 -21 -51 -65 -68 -97 -30 -58 -45 -70 -130 -103 l-30
-12 25 -10 c24 -10 23 -11 -26 -33 -65 -29 -89 -75 -39 -75 39 0 30 -14 -30
-43 -62 -30 -74 -51 -19 -34 35 11 124 80 124 97 0 5 -10 10 -22 12 -20 3 -19
6 17 27 64 38 94 70 152 161 30 47 69 100 86 118 24 24 27 32 14 32 -9 0 -34
-18 -54 -40z"/>
<path d="M1900 2114 c0 -8 5 -12 10 -9 6 3 10 10 10 16 0 5 -4 9 -10 9 -5 0
-10 -7 -10 -16z"/>
<path d="M1960 2060 c-14 -4 -42 -8 -62 -9 -21 -1 -38 -6 -38 -12 0 -8 12 -10
35 -6 19 3 35 3 34 -1 -1 -7 -109 -95 -109 -88 0 2 7 20 15 40 31 73 -2 33
-45 -55 l-45 -91 -24 54 c-22 51 -24 52 -33 28 -23 -62 -28 -122 -13 -178 l14
-55 -44 -101 c-56 -130 -70 -180 -101 -356 -39 -216 -45 -527 -15 -735 40
-277 59 -342 116 -395 21 -20 28 -22 35 -10 11 17 6 43 -31 185 -48 187 -60
284 -66 532 -8 320 15 517 80 698 74 204 68 195 138 231 47 23 105 97 93 116
-6 10 -104 -41 -104 -54 0 -11 28 -10 35 2 3 6 11 10 17 10 6 0 3 -9 -8 -21
-21 -24 -94 -64 -94 -52 0 17 51 157 62 170 6 7 26 13 46 13 l35 0 -44 -32
c-44 -32 -41 -46 7 -34 27 7 99 69 116 99 10 19 8 19 -23 14 -34 -7 -33 -6 26
48 60 55 59 66 -5 45z m-244 -255 c4 -8 3 -27 -1 -42 -5 -21 -8 -24 -16 -12
-12 19 -11 69 1 69 6 0 13 -7 16 -15z"/>
<path d="M1260 1989 c-57 -34 -128 -108 -193 -202 -33 -49 -70 -95 -81 -102
-12 -7 -45 -16 -75 -19 -70 -9 -265 -63 -311 -86 -19 -10 -55 -39 -79 -63 -43
-44 -90 -70 -253 -137 -143 -59 -195 -114 -185 -198 3 -24 15 -58 28 -75 14
-19 24 -49 26 -81 9 -115 21 -125 125 -106 l68 13 88 -41 c77 -37 157 -65 288
-101 46 -12 58 -24 117 -111 48 -72 127 -143 153 -138 13 2 2 19 -50 76 -68
74 -90 111 -80 136 14 35 131 56 211 37 27 -7 76 -30 108 -52 32 -21 64 -39
71 -39 25 0 15 30 -24 72 -45 47 -81 56 -232 57 -228 2 -430 38 -587 105 -60
25 -66 26 -124 14 -80 -16 -92 -8 -100 68 -4 38 -18 80 -38 119 -36 67 -35 97
5 132 22 20 35 23 113 22 70 0 103 5 163 25 93 32 129 32 196 1 61 -28 116
-32 167 -11 40 17 61 49 42 64 -36 28 -83 44 -119 39 -54 -7 -56 8 -6 40 24
15 58 40 76 55 18 15 44 28 58 28 40 0 83 -27 90 -58 3 -15 8 -34 10 -44 11
-41 142 -62 211 -33 38 16 73 20 73 8 0 -5 -34 -21 -76 -37 -74 -29 -76 -29
-130 -14 -51 14 -56 14 -61 -1 -3 -9 -13 -24 -21 -34 -14 -16 -13 -19 4 -33
75 -60 214 -59 265 2 8 10 40 35 73 56 34 22 53 39 45 42 -8 2 -31 10 -52 16
-21 7 -36 17 -34 23 2 7 34 23 70 37 184 69 247 182 231 417 -5 76 -10 103
-20 103 -8 0 -16 -12 -20 -27 -26 -120 -77 -234 -125 -281 -42 -41 -167 -94
-191 -81 -10 5 -18 14 -18 20 0 38 153 347 181 364 5 4 9 13 9 21 0 21 -39 17
-80 -7z m-10 -76 c-12 -21 -51 -99 -86 -173 -35 -74 -69 -135 -76 -135 -7 0
-17 16 -22 36 -8 32 -5 44 23 91 17 31 31 63 31 73 0 28 48 84 98 116 25 16
48 29 50 29 2 0 -6 -17 -18 -37z m242 -145 c-3 -40 -11 -86 -19 -102 -22 -43
-92 -114 -137 -141 -41 -23 -229 -91 -295 -106 -66 -15 -112 35 -71 76 15 15
34 20 78 20 56 1 102 11 112 25 3 4 36 17 74 29 77 25 145 67 175 109 10 15
32 58 46 95 15 37 30 67 34 67 4 0 5 -33 3 -72z m-477 -132 c37 -16 62 -54 52
-80 -7 -17 -57 -22 -57 -6 0 39 -159 30 -258 -15 -59 -27 -75 -26 -49 3 21 23
21 32 2 32 -8 0 -15 4 -15 9 0 5 26 15 58 21 31 6 93 19 137 30 100 23 89 23
130 6z m-305 -266 c14 0 41 -31 35 -41 -14 -21 -130 2 -122 24 4 13 46 27 65
21 8 -2 17 -4 22 -4z"/>
<path d="M2069 1867 c-41 -27 -76 -77 -89 -127 -10 -38 -4 -96 11 -106 18 -11
8 -25 -28 -40 -82 -32 -123 -58 -123 -79 0 -23 58 -85 79 -85 7 0 36 -23 66
-51 30 -28 58 -48 63 -45 5 3 12 39 15 80 7 98 24 130 83 152 30 11 53 29 65
48 58 95 -34 194 -109 119 l-26 -27 27 -9 c35 -11 30 -31 -10 -35 -42 -4 -56
16 -41 59 17 52 36 76 68 89 37 16 72 3 141 -52 50 -39 61 -64 34 -74 -24 -10
-7 -24 29 -24 20 0 40 8 51 20 31 35 107 27 238 -24 62 -24 135 -47 162 -51
88 -11 120 -24 155 -60 27 -28 32 -38 21 -44 -18 -12 -59 1 -109 34 -25 16
-50 25 -61 22 -11 -3 -25 1 -31 8 -13 15 -35 10 -62 -13 -22 -18 -23 -48 -4
-55 8 -3 16 -16 18 -29 4 -28 46 -35 104 -19 43 12 52 8 34 -14 -23 -27 -3
-28 37 -1 45 31 70 32 176 6 119 -30 130 -36 123 -65 -9 -37 9 -71 58 -105 52
-35 60 -66 26 -100 -19 -19 -29 -20 -138 -14 -64 3 -155 12 -200 20 -74 13
-87 13 -107 0 -26 -17 -60 -69 -69 -108 -12 -52 62 -112 211 -170 69 -26 86
-29 145 -23 42 4 69 2 73 -5 11 -17 -46 -33 -120 -33 -58 0 -87 6 -163 37 -71
28 -101 35 -127 30 -19 -3 -56 0 -83 6 l-48 13 -72 -52 c-86 -63 -112 -94
-112 -133 l0 -30 65 60 c45 42 76 63 101 68 51 9 58 -4 32 -62 -28 -62 -37
-199 -15 -228 13 -17 14 -12 20 52 3 39 13 84 21 100 20 39 144 142 171 142
12 0 55 -12 96 -26 84 -29 160 -29 223 1 29 14 36 23 36 46 0 15 -5 31 -10 34
-6 3 -7 17 -4 30 9 35 -11 39 -55 10 -23 -14 -43 -25 -46 -25 -3 0 -5 13 -5
28 0 43 -11 46 -41 12 -40 -43 -83 -40 -108 7 -21 41 -13 60 39 93 107 69 160
70 160 3 l0 -37 28 34 c33 39 52 34 52 -16 0 -19 4 -34 9 -34 15 0 41 30 41
46 0 8 15 31 34 51 42 47 79 181 74 270 l-3 58 -100 8 c-126 9 -243 34 -264
57 -9 9 -24 31 -33 48 -24 44 -66 67 -172 93 -50 12 -99 26 -108 31 -10 5 -26
38 -38 78 -22 75 -45 100 -92 100 -29 0 -78 -19 -78 -30 0 -3 -15 -23 -34 -43
-46 -50 -70 -48 -126 12 -31 33 -67 58 -117 80 -85 37 -91 37 -134 8z m525
-73 c9 -8 19 -27 22 -42 3 -15 7 -33 10 -39 7 -23 -13 -13 -24 12 -6 13 -29
36 -52 50 -22 14 -40 27 -40 30 0 12 70 3 84 -11z m225 -275 c12 -11 20 -26
18 -32 -5 -16 -42 -16 -42 0 0 6 -3 15 -7 19 -11 10 -10 34 0 34 5 0 18 -9 31
-21z m522 -109 c24 -14 25 -30 0 -30 -21 0 -45 23 -34 33 8 9 11 9 34 -3z
m-186 -339 c3 -5 1 -12 -5 -16 -5 -3 -10 1 -10 9 0 18 6 21 15 7z m95 -10 c0
-6 -4 -13 -10 -16 -5 -3 -10 1 -10 9 0 9 5 16 10 16 6 0 10 -4 10 -9z m-198
-163 c-6 -6 -19 -8 -29 -4 -16 7 -16 9 7 26 22 17 25 17 28 3 2 -8 -1 -20 -6
-25z m113 23 c-3 -6 -11 -11 -17 -11 -6 0 -6 6 2 15 14 17 26 13 15 -4z"/>
<path d="M2524 1465 c-18 -13 -16 -14 24 -15 31 0 42 4 42 15 0 19 -40 20 -66
0z"/>
<path d="M2620 1452 c0 -5 12 -14 26 -21 32 -14 54 -3 29 16 -21 14 -55 18
-55 5z"/>
<path d="M521 1272 c-48 -23 -48 -37 -4 -56 21 -9 50 -24 65 -34 15 -9 29 -14
32 -11 9 8 -36 119 -48 119 -6 0 -26 -8 -45 -18z"/>
<path d="M2720 1254 c-52 -35 -62 -65 -34 -100 16 -20 16 -13 -2 31 -4 9 -1
15 9 15 20 0 67 39 67 56 0 18 -10 18 -40 -2z"/>
<path d="M205 1231 c-53 -5 -60 -8 -57 -26 4 -29 23 -75 31 -75 4 0 31 25 60
55 30 30 47 54 40 53 -8 -1 -41 -4 -74 -7z"/>
<path d="M456 1124 c-9 -8 -16 -19 -16 -24 0 -5 -3 -15 -6 -24 -5 -13 1 -16
30 -16 30 0 38 -5 52 -31 16 -31 16 -32 -8 -26 -96 22 -139 29 -145 23 -13
-12 12 -23 189 -81 l178 -59 88 17 c80 15 95 15 166 2 101 -19 216 -19 263 0
49 21 32 36 -27 25 -95 -19 -300 -8 -300 16 0 7 14 35 30 61 17 26 30 51 30
55 0 19 -28 6 -61 -28 -42 -44 -90 -70 -169 -90 -55 -14 -63 -14 -96 2 -24 12
-49 37 -72 73 -63 101 -100 132 -126 105z"/>
<path d="M2055 903 c20 -110 35 -225 35 -265 0 -36 4 -48 15 -48 14 0 145 164
145 183 0 5 -8 6 -17 2 -10 -3 -30 -9 -45 -12 -25 -5 -28 -3 -28 21 0 15 9 44
20 66 11 22 20 42 20 46 0 17 -64 -54 -78 -86 -15 -33 -16 -34 -20 -10 -7 50
-33 130 -42 130 -5 0 -7 -12 -5 -27z"/>
</g>
</svg>
